# xmcd
#
# Track frame offsets: 
#        150
#        12434
#        35230
#        62221
#        88444
#        114392
#        159393
#        161741
#        227845
#
# Disc length: 4023 seconds
#
# Revision: 0
# Processed by: cddbd v1.5.2PL0 Copyright (c) Steve Scherf et al.
# Submitted via: ExactAudioCopy v0.99pb5
#
DISCID=780fb509
DTITLE=The Allman Brothers Band - Asheville, NC Dec 12, 2008
DYEAR=2008
DGENRE=Blues
TTITLE0=Don't Want You No More
TTITLE1=It's Not My Cross To Bear
TTITLE2=I Walk On Guilded Splinters
TTITLE3=Statesboro Blues
TTITLE4=And It Stoned Me
TTITLE5=Who's Been Talking
TTITLE6=Stage banter
TTITLE7=Dreams
TTITLE8=In Memory Of Elizabeth Reed
EXTD=
EXTT0=
EXTT1=
EXTT2=
EXTT3=
EXTT4=
EXTT5=
EXTT6=
EXTT7=
EXTT8=
PLAYORDER=
